<?xml version="1.0" standalone="no"?>
<!DOCTYPE svg PUBLIC "-//W3C//DTD SVG 20010904//EN"
 "http://www.w3.org/TR/2001/REC-SVG-20010904/DTD/svg10.dtd">
<svg version="1.0" xmlns="http://www.w3.org/2000/svg"
 width="600.000000pt" height="600.000000pt" viewBox="0 0 600.000000 600.000000"
 preserveAspectRatio="xMidYMid meet">
<metadata>
Created by potrace 1.11, written by Peter Selinger 2001-2013
</metadata>
<g transform="translate(0.000000,600.000000) scale(0.100000,-0.100000)"
fill="#000000" stroke="none">
<path d="M2827 5814 c-83 -13 -200 -46 -257 -72 -31 -14 -243 -135 -710 -405
-85 -49 -168 -97 -185 -107 -56 -32 -360 -207 -450 -260 -49 -29 -106 -62
-125 -72 -103 -59 -131 -76 -195 -119 -269 -180 -431 -433 -474 -739 -10 -74
-13 -231 -13 -600 2 -1115 4 -1394 12 -1458 27 -207 152 -454 315 -618 100
-101 125 -117 660 -424 407 -234 678 -391 980 -567 66 -39 145 -82 177 -96
251 -115 579 -122 840 -18 77 30 105 46 513 284 132 77 255 148 273 158 112
64 446 258 462 268 8 6 74 44 145 85 185 108 182 106 265 155 41 25 98 63 125
84 187 147 339 396 390 640 22 100 22 2018 1 2129 -49 253 -206 517 -396 663
-48 37 -491 301 -650 388 -30 17 -67 38 -82 49 -14 10 -29 18 -32 18 -3 0 -35
18 -71 40 -36 22 -67 40 -70 40 -2 0 -44 23 -92 51 -48 28 -117 68 -153 89
-36 21 -163 95 -283 165 -299 174 -382 211 -552 245 -82 17 -273 19 -368 4z
m353 -306 c89 -22 184 -65 298 -136 46 -29 85 -52 86 -52 2 0 92 -52 201 -115
108 -63 199 -115 200 -115 1 0 92 -52 200 -115 109 -63 199 -115 201 -115 7 0
545 -316 593 -348 150 -103 280 -315 315 -516 9 -53 12 -316 11 -1051 -1 -961
-2 -981 -22 -1035 -68 -185 -175 -332 -308 -426 -33 -24 -344 -204 -351 -204
-3 0 -17 -9 -32 -19 -15 -10 -245 -145 -512 -299 -267 -154 -530 -306 -585
-339 -195 -114 -281 -142 -455 -147 -175 -5 -291 33 -535 178 -48 28 -553 319
-610 351 -96 53 -601 344 -719 414 -150 88 -236 163 -305 267 -48 72 -100 190
-127 289 -11 41 -13 234 -11 1055 l2 1005 25 80 c40 126 91 209 189 305 77 75
117 103 341 236 248 147 678 398 830 483 41 23 89 50 105 60 64 39 413 235
465 262 133 69 345 89 510 47z"/>
<path d="M2769 4456 c-2 -2 -24 -7 -49 -10 -82 -9 -200 -46 -291 -91 -286
-140 -483 -380 -559 -680 -46 -182 -45 -368 5 -538 161 -556 717 -870 1281
-723 34 9 78 23 99 31 36 16 38 15 54 -7 16 -22 182 -265 296 -432 33 -48 89
-130 125 -181 36 -51 90 -129 120 -173 34 -49 69 -89 91 -101 71 -40 156 -18
200 51 16 26 19 44 15 86 -4 45 -15 68 -89 175 -46 67 -155 228 -243 357 -87
129 -184 272 -215 318 l-57 83 55 52 c299 283 398 741 244 1131 -30 74 -102
202 -144 255 -49 61 -178 181 -233 216 -32 21 -71 46 -86 56 -15 11 -30 19
-33 19 -3 0 -24 8 -48 19 -88 38 -139 55 -242 76 -36 8 -290 17 -296 11z m216
-300 c203 -25 407 -154 519 -328 145 -227 156 -523 29 -758 -103 -191 -288
-331 -498 -376 -90 -20 -283 -12 -365 14 -205 66 -361 196 -451 375 -88 173
-104 358 -48 552 79 272 315 475 606 521 21 3 39 7 40 7 4 4 114 -1 168 -7z"/>
</g>
</svg>
